<?xml version="1.0" encoding="UTF-8" standalone="no"?>
<!-- Created with Inkscape (http://www.inkscape.org/) -->

<svg
   width="57.923409mm"
   height="57.923409mm"
   viewBox="0 0 57.923408 57.923408"
   version="1.1"
   id="svg5"
   inkscape:version="1.1.2 (0a00cf5339, 2022-02-04)"
   sodipodi:docname="favicon.svg"
   xmlns:inkscape="http://www.inkscape.org/namespaces/inkscape"
   xmlns:sodipodi="http://sodipodi.sourceforge.net/DTD/sodipodi-0.dtd"
   xmlns="http://www.w3.org/2000/svg"
   xmlns:svg="http://www.w3.org/2000/svg">
  <sodipodi:namedview
     id="namedview7"
     pagecolor="#ffffff"
     bordercolor="#000000"
     borderopacity="0.25"
     inkscape:showpageshadow="2"
     inkscape:pageopacity="0.0"
     inkscape:pagecheckerboard="0"
     inkscape:deskcolor="#d1d1d1"
     inkscape:document-units="mm"
     showgrid="false"
     inkscape:zoom="1.5518659"
     inkscape:cx="86.025474"
     inkscape:cy="162.06297"
     inkscape:window-width="1440"
     inkscape:window-height="826"
     inkscape:window-x="0"
     inkscape:window-y="0"
     inkscape:window-maximized="1"
     inkscape:current-layer="layer2"
     inkscape:pageshadow="2" />
  <defs
     id="defs2" />
  <g
     inkscape:groupmode="layer"
     id="layer4"
     inkscape:label="Layer 3"
     transform="translate(0.06302559,-0.10747039)">
    <circle
       style="fill:#ffffff;stroke:#8499ae;stroke-width:1.49;stroke-miterlimit:4;stroke-dasharray:none;stroke-opacity:1"
       id="path1409"
       cx="28.898678"
       cy="29.069174"
       r="28.216703" />
  </g>
  <g
     inkscape:groupmode="layer"
     id="layer2"
     inkscape:label="Layer 2"
     transform="translate(47.368582,-3.2838209)">
    <path
       id="path599"
       style="font-size:19.7556px;font-family:'Cinderela Personal Use';-inkscape-font-specification:'Cinderela Personal Use';text-align:center;text-anchor:middle;stroke:#000000;stroke-width:0"
       d="m -25.325476,9.2981604 c -0.119016,-0.00133 -0.23973,-0.00111 -0.361599,6.237e-4 -0.139281,0.00193 -0.280319,0.00591 -0.423321,0.011823 -1.604824,0.031778 -3.170434,0.3416555 -4.695807,0.9295599 -1.525377,0.572016 -2.95524,1.366524 -4.289944,2.38344 -1.334704,1.001028 -2.534578,2.176874 -3.599163,3.527467 -1.064585,1.350593 -1.930555,2.804485 -2.597906,4.361639 -0.667352,1.541265 -1.103926,3.16211 -1.310487,4.862268 -0.20656,1.684269 -0.119499,3.36815 0.261848,5.052419 0.349566,1.1917 0.858224,2.25645 1.525577,3.193923 0.651461,0.937469 1.406336,1.731975 2.264362,2.38344 0.873912,0.667351 1.811344,1.191614 2.812372,1.572958 1.016917,0.381345 2.041413,0.619759 3.074219,0.715095 0.174782,0.01589 0.349537,0.02369 0.52432,0.02369 0.174783,0.01589 0.35016,0.02431 0.524943,0.02431 1.334704,0 2.621644,-0.198782 3.86101,-0.596016 1.239369,-0.397234 2.383384,-0.929922 3.43208,-1.597273 1.048695,-0.651463 1.978324,-1.397912 2.788681,-2.240048 0.826245,-0.842133 1.493432,-1.708104 2.00189,-2.597905 h -0.02369 l 0.881555,-1.215723 c 0.07944,-0.143005 0.07944,-0.365192 0,-0.66709 -0.06356,-0.22245 -0.182453,-0.405628 -0.357236,-0.548633 -0.158893,-0.158893 -0.349875,-0.238157 -0.572325,-0.238157 -0.270119,0 -0.460476,0.06366 -0.571702,0.190775 -0.826244,1.1917 -1.668808,2.168763 -2.526833,2.93145 -0.858024,0.762689 -1.707765,1.358412 -2.549901,1.787425 -0.842133,0.429011 -1.660668,0.723284 -2.455136,0.882178 -0.794466,0.158893 -1.540915,0.238157 -2.240047,0.238157 -0.349565,0 -0.691273,-0.0156 -1.024947,-0.04738 -0.317788,-0.03178 -0.627664,-0.07141 -0.929561,-0.119076 -0.889803,-0.143005 -1.692113,-0.373617 -2.407131,-0.691404 -0.69913,-0.317785 -1.318885,-0.715351 -1.859121,-1.192032 -0.524349,-0.476678 -0.969347,-1.016546 -1.334802,-1.620339 -0.349564,-0.619686 -0.627611,-1.279069 -0.834172,-1.978201 -0.317788,-1.112252 -0.437307,-2.295899 -0.357859,-3.551156 0.07944,-1.271147 0.334088,-2.534683 0.763099,-3.789938 0.429013,-1.271146 1.024736,-2.494427 1.787425,-3.670236 0.762687,-1.1917 1.668289,-2.25645 2.716985,-3.193923 1.048695,-0.937469 2.232342,-1.715749 3.551157,-2.335434 1.334704,-0.635572 2.772992,-1.025337 4.314257,-1.168341 0.635574,-0.03178 1.199468,0.01628 1.692037,0.143393 0.492569,0.111223 0.913541,0.278179 1.263105,0.500628 0.349566,0.222451 0.627611,0.48427 0.834173,0.786168 0.22245,0.286008 0.381601,0.588082 0.476938,0.905869 0.06356,0.635572 0.03952,1.318986 -0.0717,2.049896 -0.111223,0.715019 -0.310008,1.421839 -0.596017,2.120969 -0.0111,0.02876 -0.02291,0.05735 -0.03429,0.08603 0.360429,0.207675 0.692527,0.457555 0.989886,0.743162 0.35976,0.345542 0.668669,0.743382 0.91537,1.182044 0.207672,-0.301528 0.403234,-0.605943 0.58417,-0.914597 0.540238,-0.937472 0.929378,-1.875527 1.167718,-2.812996 0.254228,-0.937471 0.302286,-1.819044 0.143392,-2.645288 -0.174781,-0.587906 -0.476858,-1.144 -0.905868,-1.668346 -0.413123,-0.524348 -0.945187,-0.977149 -1.59665,-1.358493 -0.651462,-0.381344 -1.430366,-0.6756175 -2.336059,-0.8821777 -0.693418,-0.1581504 -1.456218,-0.2415519 -2.289298,-0.2506268 z"
       sodipodi:nodetypes="sscccsccccccccsscccccccscsssscccccccccscccscccccscccccssss" />
    <path
       d="m -11.542191,41.877665 q -0.476678,-0.119173 -0.76269,-0.381344 -0.262173,-0.262175 -0.357506,-0.595851 -0.143,-0.476681 0.190679,-0.834192 0.357505,-0.35751 1.04869,-0.143004 0.524345,0.143004 1.072529,0.309842 0.5481843,0.143004 1.120208,0.262174 0.7388509,-1.644548 1.5253797,-3.122258 0.7865172,-1.501545 1.7398743,-2.669412 0.9533688,-1.191702 2.1212315,-1.978226 1.1678746,-0.810358 2.6455764,-1.024864 -1.644541,-0.119173 -3.2890941,-0.381345 -1.6207137,-0.286008 -3.2175881,-0.572017 -1.9067248,-0.333676 -3.6704507,-0.595851 -1.763713,-0.286008 -3.312933,-0.286008 -2.025886,0 -3.551267,0.667354 -1.52538,0.643518 -2.43107,2.431071 -0.548185,1.072532 -0.595851,2.216566 -0.04765,1.144033 0.262172,2.2404 0.286012,1.001029 0.834196,1.906723 0.572012,0.881859 1.287036,1.549212 0.73885,0.643519 1.596874,1.00103 0.858036,0.35751 1.739886,0.309842 0.429012,0.02384 0.810357,0.214506 0.405185,0.190673 0.500518,0.52435 0.07154,0.262174 -0.04766,0.524349 -0.09531,0.23834 -0.429011,0.405178 h 0.02389 q -0.572011,0.309843 -1.215529,0.405179 -0.643518,0.07151 -1.358541,0.07151 -1.144036,-0.02384 -2.192738,-0.333676 -1.04869,-0.333678 -1.930553,-0.905694 -0.858023,-0.572018 -1.549207,-1.334707 -0.691197,-0.786523 -1.120208,-1.692216 -0.286,-0.619685 -0.500506,-1.310872 -0.333679,-1.191702 -0.262185,-2.502574 0.07154,-1.334707 0.572024,-2.454907 0.977196,-2.073561 2.335737,-3.455935 1.358542,-1.406209 2.955416,-2.264234 1.620714,-0.858026 3.408267,-1.215537 1.811392,-0.35751 3.670451,-0.35751 2.693243,0 5.3388187,0.476681 2.6455765,0.47668 5.0289805,1.001029 1.83521956,0.40518 3.3844394,0.715021 1.573047,0.28601 2.6694036,0.238341 0.595851,-0.02384 1.0487021,-0.190672 0.4528511,-0.190672 0.6435176,-0.405179 h 0.023888 q 0.2859998,-0.262174 0.667345,-0.262174 0.3575178,0 0.6435176,0.214506 0.3098512,0.214507 0.4290238,0.572017 0.1668272,0.476681 -0.2383452,0.953362 -0.4766784,0.500514 -0.8580235,0.810357 -0.3813452,0.286008 -1.0010355,0.476681 -1.1440354,0.381345 -2.3595646,0.524348 -1.2155412,0.143005 -2.5025765,0.143005 0.4528511,0.262174 0.5720117,0.667353 0.095309,0.286009 -0.095309,0.524349 -0.1906665,0.23834 -0.52434499,0.286008 -1.00103545,0.143005 -1.73988633,0.691187 -0.71502358,0.548183 -1.28703528,1.406209 -0.5720237,0.834191 -1.048702,1.954391 -0.4528391,1.096366 -0.9056902,2.359569 l -0.5720237,1.549213 q 0.1906786,0 0.3336785,0.02384 0.1668393,0 0.3575178,0 0.6911843,-1.620715 1.4062079,-2.288068 0.7150236,-0.691187 1.47770176,-0.691187 1.02487479,0 1.71605905,0.500516 0.69118429,0.47668 0.88185079,1.167867 0.1191967,0.405179 0.023888,0.881859 -0.095309,0.452848 -0.4528511,0.905694 -0.52434502,0.619686 -1.47770177,1.024864 -0.92952943,0.405178 -2.07356483,0.500514 -0.1906786,0.595851 -0.3813451,1.215537 -0.1906665,0.595851 -0.4051845,1.191702 -0.1191967,0.333676 -0.3575057,0.47668 -0.2145059,0.143005 -0.5005178,0.143005 -0.2621725,0 -0.524345,-0.09533 -0.2383452,-0.119173 -0.4290117,-0.309843 -0.1668393,-0.214506 -0.2383452,-0.476681 -0.071542,-0.262173 0.047654,-0.572016 0.143012,-0.452846 0.2621846,-0.858026 0.1191967,-0.405178 0.2621725,-0.786522 l -0.667357,-0.07151 -0.2145058,0.500514 q -0.595851,1.334706 -1.2632084,2.717081 -0.6673445,1.35854 -1.4538737,2.645578 -0.7626899,1.263204 -1.6922194,2.383404 -0.9056901,1.1202 -1.9782201,1.954392 -1.048702,0.834191 -2.311898,1.310872 -1.263208,0.500514 -2.717082,0.524349 -1.191702,0 -2.45491,-0.381346 -1.239369,-0.381343 -2.288071,-1.072531 -1.04869,-0.691187 -1.763713,-1.620715 -0.715024,-0.953362 -0.834197,-2.049727 0.02389,-0.548183 0.238346,-0.929528 0.214505,-0.405179 0.548184,-0.643519 0.333678,-0.262174 0.738851,-0.381344 0.405184,-0.119172 0.810357,-0.119172 0.643517,0 1.167875,0.286008 0.548185,0.286008 0.715012,0.834191 0.09531,0.309843 0,0.667353 -0.09531,0.357511 -0.476679,0.762689 -0.119196,0.119173 -0.119196,0.429013 0,0.309842 0.07154,0.667353 0.548184,0.619685 1.334702,1.00103 0.786529,0.405179 1.692219,0.429012 1.144036,0.02384 2.049726,-0.715021 0.929529,-0.738855 1.716058,-1.954391 0.786518,-1.215536 1.477703,-2.788583 0.691196,-1.573047 1.38238,-3.217595 l 0.90569,-2.073561 q -0.405173,-0.09533 -0.786517,-0.166838 -0.381345,-0.09533 -0.76269,-0.214507 z M -0.55468941,40.25695 q -0.23834522,0 -0.42902381,0.166839 -0.19066648,0.166838 -0.45283898,0.595851 0.2621725,-0.09533 0.50051768,-0.214507 0.2621725,-0.143004 0.38134511,-0.333676 0.0476546,-0.04767 0.0476546,-0.119173 0,-0.09533 -0.0476546,-0.09533 z"
       style="font-size:19.7556px;font-family:'Cinderela Personal Use';-inkscape-font-specification:'Cinderela Personal Use';text-align:center;text-anchor:middle;stroke:#000000;stroke-width:0"
       id="path611" />
  </g>
  <g
     inkscape:label="Layer 1"
     inkscape:groupmode="layer"
     id="layer1"
     transform="translate(25.699812,-58.308215)" />
</svg>
